Coordinates
version=1
nRows=54
nColumns=12
inDegrees=yes

Units are S.I. units (second, meters, Newtons, ...)
Angles are in degrees

endheader
time	SC_y	SC_z	SC_x	AC_y	AC_z	AC_x	GH_y	GH_z	GH_yy	EL_x	PS_y
       0.0              -49.43          23.47          37.95          44.03          1.917         -8.748         -38.97          68.93         -59.62          49.11          114.9
    0.0108              -49.43          23.47          37.94          44.03          1.918         -8.746         -38.98          68.92         -59.61          49.11          114.8
    0.0216              -49.43          23.47          37.94          44.03          1.919         -8.743          -39.0          68.91         -59.59          49.11          114.8
    0.0324              -49.43          23.47          37.93          44.03          1.919          -8.74         -39.01           68.9         -59.57          49.11          114.8
   0.04319              -49.43          23.47          37.92          44.03           1.92         -8.736         -39.03          68.89         -59.55          49.11          114.8
   0.05399              -49.43          23.46          37.92          44.03          1.921         -8.733         -39.04          68.88         -59.53          49.12          114.8
   0.06479              -49.43          23.46          37.91          44.03          1.922         -8.729         -39.06          68.86         -59.51          49.12          114.8
   0.07559              -49.42          23.46           37.9          44.03          1.923         -8.725         -39.08          68.85         -59.48          49.12          114.7
   0.08639              -49.42          23.46           37.9          44.03          1.924         -8.721          -39.1          68.84         -59.46          49.12          114.7
   0.09719              -49.42          23.46          37.89          44.04          1.926         -8.716         -39.12          68.82         -59.43          49.12          114.7
     0.108              -49.42          23.45          37.88          44.04          1.927         -8.711         -39.14          68.81          -59.4          49.12          114.7
    0.1188              -49.42          23.45          37.87          44.04          1.929         -8.706         -39.17          68.79         -59.37          49.13          114.6
    0.1296              -49.42          23.45          37.86          44.04           1.93           -8.7          -39.2          68.77         -59.33          49.13          114.6
    0.1404              -49.42          23.44          37.85          44.04          1.932         -8.694         -39.22          68.75         -59.29          49.13          114.6
    0.1512              -49.42          23.44          37.84          44.05          1.934         -8.687         -39.26          68.73         -59.25          49.13          114.5
     0.162              -49.42          23.44          37.82          44.05          1.936          -8.68         -39.29           68.7         -59.21          49.14          114.5
    0.1728              -49.42          23.43          37.81          44.05          1.938         -8.672         -39.33          68.68         -59.16          49.14          114.5
    0.1836              -49.42          23.43          37.79          44.05           1.94         -8.664         -39.37          68.65         -59.11          49.14          114.4
    0.1944              -49.42          23.42          37.78          44.06          1.943         -8.654         -39.41          68.62         -59.05          49.15          114.4
    0.2052              -49.41          23.42          37.76          44.06          1.945         -8.644         -39.46          68.58         -58.99          49.15          114.3
     0.216              -49.41          23.41          37.74          44.06          1.948         -8.633         -39.51          68.55         -58.92          49.16          114.3
    0.2268              -49.41          23.41          37.71          44.07          1.952          -8.62         -39.57          68.51         -58.85          49.16          114.2
    0.2376              -49.41           23.4          37.69          44.07          1.955         -8.606         -39.63          68.46         -58.76          49.17          114.1
    0.2484              -49.41          23.39          37.66          44.08           1.96         -8.591          -39.7          68.41         -58.67          49.17          114.1
    0.2592               -49.4          23.38          37.63          44.08          1.964         -8.574         -39.78          68.36         -58.57          49.18          114.0
      0.27               -49.4          23.37           37.6          44.09          1.969         -8.555         -39.87          68.29         -58.46          49.19          113.9
    0.2808               -49.4          23.36          37.56           44.1          1.975         -8.534         -39.97          68.22         -58.33          49.19          113.8
    0.2916               -49.4          23.35          37.51           44.1          1.981          -8.51         -40.08          68.15         -58.18           49.2          113.7
    0.3024              -49.39          23.34          37.46          44.11          1.989         -8.484          -40.2          68.06         -58.02          49.21          113.5
    0.3132              -49.39          23.32          37.41          44.12          1.997         -8.453         -40.34          67.96         -57.84          49.23          113.4
     0.324              -49.38           23.3          37.35          44.13          2.006         -8.418          -40.5          67.84         -57.63          49.24          113.2
    0.3347              -49.38          23.28          37.27          44.15          2.017         -8.378         -40.69          67.71         -57.39          49.26          113.0
    0.3455              -49.37          23.26          37.19          44.16           2.03         -8.332          -40.9          67.56         -57.11          49.27          112.8
    0.3563              -49.37          23.23          37.09          44.18          2.044         -8.278         -41.15          67.39         -56.78           49.3          112.5
    0.3671              -49.36           23.2          36.98           44.2          2.061         -8.216         -41.44          67.18          -56.4          49.32          112.2
    0.3779              -49.35          23.16          36.84          44.23          2.081         -8.142         -41.79          66.94         -55.96          49.35          111.8
    0.3887              -49.34          23.12          36.68          44.26          2.105         -8.054          -42.2          66.65         -55.42          49.38          111.4
    0.3995              -49.32          23.06          36.49          44.29          2.134         -7.948         -42.69           66.3         -54.79          49.43          110.8
    0.4103              -49.31           23.0          36.26          44.33          2.168         -7.821         -43.28          65.88         -54.02          49.48          110.2
    0.4211              -49.28          22.92          35.97          44.38           2.21         -7.665          -44.0          65.37         -53.08          49.54          109.4
    0.4319              -49.26          22.82          35.62          44.45          2.262         -7.473         -44.89          64.74         -51.91          49.61          108.4
    0.4427              -49.23           22.7          35.19          44.53          2.327         -7.233         -46.01          63.96         -50.47          49.71          107.2
    0.4535              -49.19          22.54          34.64          44.63          2.409         -6.931         -47.41          62.97         -48.64          49.83          105.7
    0.4643              -49.14          22.35          33.94          44.75          2.513         -6.547         -49.19          61.71         -46.32          49.98          103.8
    0.4751              -49.07           22.1          33.04          44.92          2.646         -6.056         -51.47           60.1         -43.35          50.17          101.3
    0.4859              -48.99          21.77           31.9          45.13          2.817         -5.426          -54.4          58.03         -39.54          50.42          98.15
    0.4967              -48.88          21.36          30.43          45.39          3.035          -4.62         -58.14          55.39         -34.68          50.74           94.1
    0.5075              -48.75          20.84          28.58          45.73          3.309         -3.607         -62.84          52.06         -28.56          51.14          89.01
    0.5183              -48.59          20.21          26.34          46.14          3.643         -2.373         -68.56          48.02          -21.1          51.63          82.81
    0.5291               -48.4          19.48          23.73          46.61          4.031        -0.9429         -75.21          43.32         -12.46          52.19          75.61
    0.5399              -48.19          18.69          20.91          47.12           4.45          0.606          -82.4          38.24         -3.096           52.8          67.83
    0.5507              -47.99           17.9          18.09          47.64           4.87          2.155         -89.59          33.16          6.263          53.41          60.04
    0.5615               -47.8          17.17          15.49          48.11          5.257          3.585         -96.23          28.47          14.91          53.98          52.85
    0.5723              -47.64          16.54          13.24          48.52          5.591          4.819         -102.0          24.42          22.36          54.46          46.64
